<svg xmlns="http://www.w3.org/2000/svg" xmlns:xlink="http://www.w3.org/1999/xlink" width="115.26" height="115.26" viewBox="0 0 115.26 115.26">
  <defs>
    <clipPath id="clip-path">
      <rect width="115.26" height="115.26" fill="none"/>
    </clipPath>
  </defs>
  <g id="Component_1" data-name="Component 1" opacity="0.75" clip-path="url(#clip-path)">
    <g id="Group_151" data-name="Group 151" transform="translate(-159.553 -203.034)">
      <g id="Group_150" data-name="Group 150">
        <path id="Path_62" data-name="Path 62" d="M211.184,203.034h12a3.207,3.207,0,0,1,2.909,3.273c.727,14.907,12.362,19.634,23.27,9.817,1.454-1.091,3.272-1.455,4.363-.364l8.363,8.363c1.818,2.181-18.18,26.542,9.453,27.633,1.818.364,3.272,1.455,3.272,2.909v12a3.2,3.2,0,0,1-3.272,2.908c-14.907.728-19.634,12.363-9.817,23.271,1.454,1.454,1.454,3.272.364,4.363a90.784,90.784,0,0,1-8.363,8.362c-1.091,1.091-2.909,1.091-4.363-.363-10.908-9.817-22.543-5.091-23.27,9.817a3.206,3.206,0,0,1-2.909,3.272h-12c-1.454,0-2.545-1.454-2.909-3.272-.727-14.908-12.362-19.634-23.27-9.817a2.992,2.992,0,0,1-4.363.363l-8.363-8.362c-1.09-1.091-.727-2.909.364-4.363,9.817-10.908,5.09-22.543-9.817-23.271a3.206,3.206,0,0,1-3.273-2.908v-12c0-1.454,1.455-2.545,3.273-2.909,14.907-.727,19.634-12.362,9.817-23.27-1.091-1.091-1.454-3.272-.364-4.363a90.672,90.672,0,0,0,8.363-8.363c1.091-1.091,3.272-.727,4.363.364,10.908,9.817,22.543,5.09,23.27-9.817C208.639,204.489,209.73,203.034,211.184,203.034Zm6.181,28.724c15.635,0,28.724,13.09,28.724,29.088a29.022,29.022,0,0,1-28.724,28.724c-16,0-29.087-13.089-29.087-28.724A29.173,29.173,0,0,1,217.365,231.758Z" fill="#ea5c1a" fill-rule="evenodd"/>
      </g>
    </g>
    <path id="Path_63" data-name="Path 63" d="M1154.156,3187l12.169,12.633-4.932,5.076-7.237,7.448" transform="translate(-3142.337 1218.319) rotate(-90)" fill="none" stroke="#ea5c1a" stroke-width="3"/>
  </g>
</svg>
