<svg xmlns="http://www.w3.org/2000/svg" width="408.494" height="408.494" viewBox="0 0 408.494 408.494">
  <g id="Group_263" data-name="Group 263" transform="translate(-93.391 -191.396)">
    <g id="Group_262" data-name="Group 262">
      <path id="Path_167" data-name="Path 167" d="M276.375,191.4H318.9c5.155,0,10.309,5.154,10.309,11.6,2.577,52.834,43.813,69.586,82.472,34.793,5.155-3.865,11.6-5.154,15.464-1.288l29.638,29.638c6.443,7.732-64.431,94.07,33.5,97.936,6.444,1.288,11.6,5.154,11.6,10.309V416.9c0,5.155-5.154,10.309-11.6,10.309-52.833,2.578-69.585,43.814-34.792,82.472,5.154,5.155,5.154,11.6,1.288,15.464-14.175,15.464-14.175,15.464-29.638,29.638-3.866,3.866-10.309,3.866-15.464-1.288-38.659-34.793-79.895-18.041-82.472,34.793,0,6.443-5.154,11.6-10.309,11.6H276.375c-5.154,0-9.02-5.154-10.309-11.6-2.577-52.834-43.813-69.586-82.472-34.793a10.606,10.606,0,0,1-15.463,1.288L138.492,525.15c-3.865-3.866-2.577-10.309,1.289-15.464,34.793-38.658,18.041-79.894-34.793-82.472-6.443,0-11.6-5.154-11.6-10.309V374.381c0-5.155,5.154-9.021,11.6-10.309,52.834-2.578,69.586-43.814,34.793-82.472-3.866-3.866-5.154-11.6-1.289-15.464,15.464-14.175,15.464-14.175,29.639-29.638,3.866-3.866,11.6-2.577,15.463,1.288,38.659,34.793,79.9,18.041,82.472-34.793C267.355,196.55,271.221,191.4,276.375,191.4Zm21.907,101.8c55.411,0,101.8,46.391,101.8,103.09,0,55.411-46.391,101.8-101.8,101.8-56.7,0-103.09-46.391-103.09-101.8C195.192,339.588,241.583,293.2,298.282,293.2Z" fill="#afafaf" fill-rule="evenodd"/>
    </g>
  </g>
</svg>
